<svg width="512" height="512" viewBox="0 0 512 512" fill="none" xmlns="http://www.w3.org/2000/svg">
<rect width="512" height="512" fill="#06090A"/>
<path d="M230.617 114.277C240.071 107.657 253.101 109.955 259.721 119.408L406.219 328.629C412.839 338.083 410.541 351.114 401.087 357.734L344.028 397.688C334.574 404.307 321.543 402.01 314.923 392.556L168.425 183.334C161.805 173.88 164.103 160.85 173.557 154.231L230.617 114.277ZM175.014 269.47C210.92 269.47 240.028 298.578 240.028 334.484C240.027 370.39 210.92 399.497 175.014 399.497C139.108 399.497 110 370.39 110 334.484C110 298.578 139.108 269.47 175.014 269.47Z" fill="white"/>
</svg>
