<svg width="256" height="256" viewBox="0 0 256 256" fill="none" xmlns="http://www.w3.org/2000/svg">
<title>Artifact</title>
<style>
    rect {
        fill: white;
    }
    path {
        fill: #091114;
    }

  @media (prefers-color-scheme: dark) {
    rect {
        fill: #091114;
    }
    path {
        fill: white;
    }
  }
</style>
<rect width="256" height="256"/>
<path d="M110.411 33.5205C116.714 29.1073 125.401 30.6387 129.814 36.9414L227.479 176.423C231.892 182.725 230.361 191.412 224.059 195.825L186.019 222.461C179.716 226.874 171.028 225.343 166.615 219.04L68.9502 79.5596C64.537 73.2569 66.0684 64.5695 72.3711 60.1562L110.411 33.5205ZM73.3428 136.982C97.2801 136.983 116.686 156.388 116.686 180.325C116.686 204.263 97.2802 223.668 73.3428 223.668C49.4053 223.668 30 204.263 30 180.325C30 156.388 49.4053 136.982 73.3428 136.982Z"/>
</svg>
