<svg width="100" height="58" viewBox="0 0 100 58" fill="none" xmlns="http://www.w3.org/2000/svg">
<path d="M23.7307 0.277252C23.2119 0.354881 22.4724 0.510139 22.0751 0.609948C21.6777 0.709757 20.883 0.975914 20.3091 1.18662C19.7351 1.39733 18.7859 1.81874 18.2119 2.11817C17.638 2.40651 16.6446 2.99427 16.0044 3.41568C15.3642 3.8371 14.3267 4.59121 13.6865 5.10134C13.0464 5.61148 11.8322 6.73155 10.9823 7.58547C10.1325 8.45048 9.03974 9.62601 8.55409 10.2027C8.06844 10.7794 7.22958 11.8551 6.67771 12.587C6.12583 13.3189 5.28698 14.5388 4.80133 15.304C4.32671 16.0692 3.56512 17.3889 3.12362 18.2428C2.69316 19.0968 2.09713 20.3943 1.8212 21.1262C1.54526 21.8581 1.20309 22.9117 1.05961 23.4551C0.905081 23.9985 0.717443 24.8302 0.618105 25.2849C0.529805 25.7396 0.397355 26.4826 0.33113 26.9262C0.275942 27.3587 0.220754 28.4899 0.209717 29.4103C0.209717 30.3419 0.253867 31.5285 0.320092 32.0497C0.386317 32.5709 0.562918 33.447 0.717443 33.9904C0.871968 34.5338 1.26932 35.5319 1.58941 36.2084C1.9095 36.8849 2.48345 37.9717 2.86976 38.6482C3.24504 39.3247 3.89625 40.3671 4.30464 40.9771C4.71303 41.587 5.36424 42.4853 5.75056 42.9732C6.13687 43.4612 6.89846 44.2929 7.45033 44.8363C7.99117 45.3686 8.87417 46.1117 9.40398 46.4998C9.93378 46.8769 10.7837 47.3981 11.2804 47.6532C11.7881 47.9082 12.5938 48.2409 13.0795 48.3962C13.5651 48.5403 14.3598 48.7289 14.8455 48.8065C15.3974 48.8952 16.2031 48.9174 16.9978 48.873C17.6932 48.8398 18.543 48.7289 18.8742 48.6402C19.2053 48.5403 19.5585 48.4627 19.6468 48.4627C19.7351 48.4627 20.0883 48.9396 20.4305 49.5495C20.7726 50.1373 21.4349 51.1465 21.9095 51.7897C22.3841 52.4329 23.2671 53.4532 23.8852 54.0631C24.5033 54.673 25.3532 55.405 25.7726 55.6933C26.2031 55.9706 26.9426 56.4031 27.4283 56.647C27.9139 56.891 28.6313 57.1904 29.0287 57.3124C29.4261 57.4344 30.2208 57.5897 30.7947 57.6673C31.4349 57.756 32.2406 57.7893 32.8366 57.7449C33.3775 57.7006 34.2274 57.5786 34.713 57.4566C35.1987 57.3346 35.9713 57.0795 36.4238 56.891C36.8764 56.7025 37.649 56.2811 38.1347 55.9595C38.6203 55.6379 39.3598 55.0612 39.7793 54.662C40.1987 54.2738 40.8389 53.553 41.2031 53.065C41.5673 52.5771 42.0199 51.8562 42.2185 51.457C42.4172 51.0577 42.6821 50.4145 42.8035 50.0153C42.936 49.6161 43.0905 48.9729 43.1567 48.5736C43.234 48.1744 43.2781 47.4314 43.2781 46.9101C43.2781 46.3889 43.2009 45.6237 43.1126 45.1912C43.0132 44.7587 42.9139 44.3151 42.8698 44.1931C42.8146 44.0046 42.9912 43.8826 44.1943 43.2727L45.585 42.5851C46.5232 43.3614 47.053 43.7052 47.351 43.8604C47.66 44.0157 48.1898 44.2153 48.543 44.304C48.8852 44.3927 49.4812 44.4704 49.8565 44.4704C50.2428 44.4704 50.9161 44.3927 51.3576 44.2818C51.8102 44.182 52.6269 43.8493 53.2561 43.5277L54.3598 42.94C55.4746 43.6386 56.1148 43.9602 56.5121 44.1155C56.9978 44.2929 57.5497 44.4038 58.223 44.4482C59.0839 44.4925 59.3377 44.4704 60.1545 44.2153C60.6733 44.06 61.3466 43.7717 61.6446 43.5721C61.9536 43.3836 62.5386 42.94 62.947 42.5962L63.7086 41.9751C64.5033 42.7736 65.0552 43.2172 65.4525 43.4723C65.8499 43.7163 66.4901 44.0268 66.8874 44.1599C67.3179 44.2929 68.0464 44.4038 68.7086 44.4371C69.5916 44.4815 70.011 44.4482 70.7837 44.2597C71.3135 44.1266 72.053 43.8826 72.4283 43.7163C72.8146 43.5388 73.521 43.1396 74.0066 42.818L74.8896 42.2302C75.4856 42.818 75.883 43.1507 76.1589 43.3392C76.4349 43.5277 76.9647 43.8161 77.34 43.9713C77.7263 44.1266 78.3664 44.304 78.7748 44.3706C79.3488 44.4704 79.7241 44.4704 80.3532 44.3706C80.8057 44.304 81.479 44.1044 81.8433 43.927C82.2075 43.7495 82.7483 43.3836 83.0574 43.1063C83.3554 42.8402 83.8411 42.2746 84.117 41.8532C84.3929 41.4317 84.713 40.9549 84.8124 40.7885L84.989 40.478C85.8168 41.6425 86.3576 42.2524 86.7108 42.5851C87.075 42.9178 87.638 43.3281 87.9691 43.4945C88.3002 43.6608 88.8742 43.8715 89.2384 43.9602C89.6026 44.06 90.3201 44.1377 90.8388 44.1377C91.3576 44.1377 92.1192 44.06 92.5497 43.9713C92.9801 43.8715 93.5982 43.6719 93.9294 43.5166C94.2605 43.3614 94.8565 42.9954 95.2539 42.696C95.6512 42.4077 96.2693 41.8532 96.6225 41.465C96.9757 41.0769 97.4614 40.478 97.6821 40.1453C97.9139 39.8126 98.2781 39.1694 98.4989 38.7369C98.7196 38.2933 98.9956 37.517 99.117 37.018C99.2384 36.4968 99.3377 35.7094 99.3377 35.2103C99.3377 34.678 99.2494 33.9683 99.117 33.436C98.9845 32.9369 98.6424 32.083 98.3223 31.4952C98.0132 30.9186 97.4283 29.9316 97.0088 29.3105C96.5894 28.6784 96.2472 28.0906 96.2472 28.0019C96.2472 27.9132 96.4349 27.647 96.6556 27.4142C96.8874 27.1813 97.351 26.6711 97.6932 26.283C98.0353 25.8838 98.4768 25.3182 98.6755 25.0077C98.8852 24.7082 99.1943 24.1537 99.3598 23.7878C99.5364 23.4218 99.7461 22.7231 99.8344 22.2352C99.9227 21.6918 99.9669 21.0486 99.9338 20.5717C99.8896 20.1392 99.7682 19.3962 99.6468 18.9082C99.5254 18.4203 99.2494 17.6773 99.0397 17.2447C98.819 16.8122 98.3664 16.047 98.0243 15.5258C97.6821 15.0046 97.0088 14.1839 96.5232 13.6849C95.9161 13.075 95.4525 12.6979 95.0331 12.5094C94.702 12.3652 94.3157 12.1878 94.1722 12.1323L93.9073 12.0325C94.2494 11.6 94.5475 11.0788 94.8013 10.5908C95.0552 10.0918 95.2649 9.53729 95.2649 9.31549C95.2759 9.10479 95.2207 8.78318 95.1435 8.59465C95.0773 8.40612 94.6578 7.71855 94.2163 7.04207C93.7748 6.36559 92.9249 5.07916 92.3289 4.15871C91.7219 3.24934 90.9382 2.1958 90.5629 1.82983C90.1987 1.45278 89.6689 1.04245 89.3709 0.909374C89.0839 0.776296 88.6424 0.621038 88.3775 0.554499C88.1236 0.499049 87.5166 0.4436 87.0309 0.4436C86.5453 0.4436 85.8278 0.499049 85.4305 0.554499C85.0331 0.621038 84.3929 0.776296 83.9956 0.909374C83.5982 1.03136 83.0022 1.27534 82.6711 1.44169C82.34 1.60804 81.7108 2.01836 81.2804 2.33997C80.8389 2.67266 80.2097 3.24934 79.8675 3.63748C79.5254 4.01454 79.117 4.59121 78.9625 4.91282C78.7712 5.29726 78.6718 5.67432 78.6645 6.04398C78.6645 6.42104 78.7638 6.79809 78.9514 7.20842C79.117 7.54111 79.2494 7.96253 79.2494 8.15106C79.2494 8.33958 79.1611 8.761 79.0397 9.0937C78.9294 9.42639 78.2892 11.1121 77.6049 12.8421L76.3797 15.9694C75.3973 15.0933 74.713 14.6497 74.2274 14.4168C73.6203 14.1174 73.0243 13.9289 72.2958 13.7958C71.5673 13.6738 70.9934 13.6405 70.4194 13.696C69.9669 13.7403 69.2494 13.8845 68.819 14.0287C68.3885 14.1618 67.9912 14.2505 67.936 14.2061C67.8698 14.1729 67.66 13.7625 67.4503 13.3078C67.2517 12.8532 66.6998 11.8329 66.2252 11.0344C65.7505 10.247 64.989 9.06043 64.5254 8.40612C63.9845 7.62983 63.4768 7.05316 63.1015 6.77591C62.7925 6.53194 62.3068 6.2436 62.0309 6.12161C61.755 6.01071 61.2141 5.85545 60.8168 5.77783C60.3311 5.7002 59.8344 5.68911 59.2715 5.75565C58.819 5.8111 58.1898 5.95526 57.8918 6.06616C57.5828 6.17706 57.0861 6.42104 56.7881 6.59848C56.479 6.77591 56.0155 7.1197 55.7506 7.36368C55.4857 7.61874 55.0442 8.11779 54.7792 8.48375C54.5143 8.84972 54.1943 9.4153 54.0728 9.73691C53.9625 10.0474 53.819 10.6019 53.7638 10.9568C53.7086 11.3006 53.7086 11.9882 53.7528 12.4761C53.7969 12.9641 53.9404 13.6405 54.0618 13.9732C54.1832 14.3059 54.3488 14.7384 54.4371 14.927C54.5585 15.2375 54.5585 15.2929 54.3819 15.4593C54.2053 15.6256 54.1612 15.6034 53.6645 15.2042C53.3775 14.9713 52.936 14.6719 52.6711 14.5388C52.4172 14.4168 51.9426 14.2394 51.6225 14.1507C51.3135 14.062 50.574 13.9621 50 13.9178C49.1943 13.8512 48.7417 13.8734 48.0132 14.0287C47.4945 14.1285 46.8212 14.317 46.5232 14.439C46.2141 14.561 45.6954 14.8715 45.3642 15.1377L44.7572 15.6145C44.0287 14.7717 43.6314 14.439 43.3996 14.317C43.1788 14.2061 42.7263 14.0509 42.4062 13.9843C42.0971 13.9178 41.5453 13.8623 41.1921 13.8623H40.5629C39.8786 11.7553 39.3929 10.5686 39.0397 9.86999C38.6976 9.17132 37.9912 7.97362 37.4834 7.20842C36.9647 6.44322 36.1369 5.32314 35.6291 4.72429C35.1214 4.11435 34.3488 3.31588 33.9183 2.94991C33.4768 2.57285 32.7042 2.01836 32.2075 1.71893C31.6998 1.40842 30.8389 0.987004 30.298 0.787386C29.7572 0.587768 28.83 0.354881 28.2561 0.266162C27.6821 0.188533 26.6336 0.121994 25.9382 0.121994C25.2428 0.133084 24.2495 0.199623 23.7307 0.277252Z" fill="black"/>
<path d="M25.8828 2.68359C26.4236 2.69468 27.2957 2.76124 27.8145 2.83887C28.3331 2.91647 29.0723 3.09414 29.4697 3.23828C29.867 3.38241 30.5295 3.69258 30.96 3.93652C31.4015 4.19159 32.0644 4.71363 32.5059 5.15723C32.9803 5.64514 33.4766 6.29947 33.8076 6.87598C34.0946 7.3972 34.4591 8.20676 34.6025 8.68359C34.757 9.14931 34.9335 9.90312 35.0107 10.3467C35.088 10.7792 35.1436 12.0213 35.1436 13.0859C35.1436 14.4167 35.0878 15.4042 34.9443 16.2471C34.845 16.9235 34.6242 17.9654 34.4697 18.5752C34.3262 19.1851 34.0062 20.184 33.7744 20.7939C33.5536 21.4038 33.1238 22.4458 32.8369 23.1221C32.55 23.7985 32.0088 24.9409 31.6445 25.6729C31.2913 26.4048 30.6839 27.5255 30.3086 28.1465C29.9443 28.7786 29.3482 29.6769 28.9951 30.1426C28.6528 30.6195 27.9578 31.4626 27.4502 32.0391C26.9534 32.6158 25.9605 33.6137 25.2432 34.2568C24.5257 34.9 23.9401 35.4436 23.9512 35.4658C23.9556 35.4866 24.2407 36.1255 24.5801 36.8955C24.9333 37.6829 25.4637 38.6928 25.7617 39.1475C26.0598 39.6021 26.6004 40.2786 26.9756 40.6445C27.3509 41.0105 27.9247 41.4765 28.2559 41.665C28.5869 41.8535 29.2379 42.1192 29.6904 42.2412C30.143 42.3743 30.7397 42.4746 31.0156 42.4746C31.2916 42.4746 31.8107 42.4191 32.1748 42.3525C32.5391 42.2859 33.1349 42.1083 33.499 41.9531C33.8633 41.7979 34.4149 41.5092 34.7129 41.3096C35.0219 41.1099 35.5854 40.6664 36.7002 39.6572L36.832 40.1006C36.8983 40.3335 36.9648 40.9329 36.9648 41.4209C36.9648 41.9088 36.8988 42.5853 36.8105 42.918C36.7222 43.2507 36.5015 43.8274 36.3359 44.1934C36.1594 44.5592 35.817 45.1574 35.5742 45.5234C35.3204 45.8894 34.8781 46.4336 34.5801 46.7441C34.282 47.0546 33.7743 47.5087 33.4434 47.7637C33.1122 48.0187 32.4388 48.4181 31.9531 48.6621C31.4675 48.906 30.6515 49.2282 30.1328 49.3613C29.3934 49.5609 28.9074 49.6162 27.8701 49.6162C26.8216 49.6162 26.3685 49.5609 25.6621 49.3613C25.1765 49.2172 24.503 48.9616 24.1719 48.7842C23.8407 48.6067 23.3109 48.2521 23.002 47.9971C22.6929 47.7309 22.1964 47.2091 21.8984 46.832C21.6005 46.455 21.1261 45.7346 20.8281 45.2246C20.5412 44.7145 20.11 43.8053 19.8672 43.1953C19.6244 42.5854 19.3049 41.6313 19.1504 41.0879C18.9959 40.5445 18.8074 39.746 18.7412 39.3135C18.675 38.881 18.5868 38.4819 18.5537 38.4043C18.5095 38.3231 18.2298 38.4376 17.7148 38.748C17.2956 39.003 16.6229 39.3577 16.2256 39.5352C15.8283 39.7126 15.1548 39.9457 14.7354 40.0566C14.3159 40.1675 13.5206 40.3114 12.9688 40.3779C12.2625 40.4555 11.6772 40.4452 10.9268 40.3564C10.3529 40.2899 9.55847 40.1347 9.16113 40.0127C8.7638 39.8907 8.20066 39.6578 7.8916 39.5137C7.59359 39.3584 7.11871 39.0811 6.84277 38.8926C6.60124 38.7275 6.19104 38.4092 5.89258 38.1094L4.66895 36.7744C4.40404 36.475 4.05083 35.8865 3.83008 35.4873C3.60933 35.088 3.28918 34.3119 3.10156 33.7686C2.91393 33.2251 2.71534 32.3158 2.66016 31.7725C2.59393 31.2291 2.53809 30.1863 2.53809 29.4766C2.53811 28.7557 2.61552 27.6022 2.71484 26.9258C2.80318 26.2382 3.03534 25.096 3.21191 24.3975C3.39957 23.6988 3.76374 22.5787 4.01758 21.9023C4.28248 21.2259 4.66921 20.3052 4.87891 19.8506C5.08871 19.3958 5.57375 18.4751 5.95996 17.7988C6.33528 17.1223 7.08617 15.9361 7.62695 15.1377C8.15666 14.3394 9.02848 13.142 9.56934 12.4766C10.0991 11.8112 11.1593 10.6126 11.9209 9.8252C12.6824 9.03797 13.8189 7.97399 14.459 7.46387C15.0992 6.94264 16.1372 6.17727 16.7773 5.75586C17.4175 5.32336 18.433 4.73495 19.04 4.43555C19.6471 4.13615 20.7395 3.69315 21.4678 3.44922C22.1962 3.20526 23.2668 2.92761 23.8408 2.83887C24.4147 2.75016 25.342 2.6836 25.8828 2.68359ZM86.9209 3.07227C87.3954 3.10557 87.8808 3.21623 88.1787 3.36035C88.5319 3.53779 88.7418 3.74864 88.9404 4.10352C89.1611 4.53584 89.1938 4.70233 89.1387 5.32324C89.1055 5.72247 88.984 6.31061 88.8516 6.62109C88.7292 6.94493 87.6817 9.39467 86.5234 12.0547C85.3645 14.7273 84.1829 17.4554 83.918 18.1318C83.6421 18.8083 83.223 19.9283 82.9912 20.627C82.7594 21.3256 82.6053 21.9469 82.6494 21.9912C82.694 22.0464 82.9255 22.0245 83.168 21.958C83.4109 21.8803 83.9299 21.6472 84.3271 21.4365C84.7245 21.2257 85.3645 20.7821 85.7617 20.4717C86.159 20.1501 86.7104 19.6178 86.9863 19.2852C87.2623 18.9525 87.6604 18.4424 87.8701 18.1318C88.0688 17.8323 88.4879 17.0785 88.7969 16.4688C89.3156 15.4375 89.3817 15.3371 89.9004 15.082C90.3971 14.8381 90.5849 14.8047 91.7217 14.8047C92.8695 14.8047 93.0574 14.8381 93.543 15.082C93.9623 15.2927 94.161 15.4814 94.3486 15.8584C94.5693 16.2797 94.5914 16.424 94.4922 16.8008C94.437 17.0447 94.1388 17.6215 93.8408 18.0762C93.5318 18.5309 92.8697 19.3079 92.373 19.7959C91.8654 20.2949 91.0707 20.9596 90.6182 21.2812C90.1656 21.6029 89.3488 22.1133 88.7969 22.4238C88.2561 22.7343 87.5607 23.1445 87.2627 23.333C86.9647 23.5215 86.6554 23.8099 86.5781 23.9873C86.4898 24.1537 86.3794 24.5199 86.3242 24.8193C86.247 25.1962 86.2586 25.551 86.3799 26.1162C86.4682 26.5375 86.6335 27.1588 86.7549 27.4805C86.8763 27.791 87.1412 28.3239 87.3398 28.6455C87.5386 28.956 87.9253 29.4107 88.2012 29.6436C88.4882 29.8985 88.9299 30.1313 89.2939 30.2422C89.7242 30.3641 90.1106 30.3972 90.6182 30.3418C91.0155 30.3085 91.5561 30.164 91.832 30.042C92.1079 29.92 92.5604 29.6433 92.8584 29.4326C93.1454 29.2219 93.4106 29.0777 93.4658 29.1221C93.5098 29.1557 93.488 29.466 93.4219 29.8096C93.3446 30.1533 93.1568 30.7853 92.9912 31.2178C92.8146 31.6503 92.4723 32.338 92.2295 32.7705C91.9756 33.1919 91.4018 33.9239 90.9492 34.3896C90.3755 34.9772 89.9008 35.3429 89.4043 35.5869C89.0069 35.7754 88.3109 36.0086 87.8584 36.1084C87.3066 36.2193 86.8211 36.2524 86.4238 36.208C86.0927 36.1636 85.5737 36.0201 85.2646 35.876C84.9666 35.7429 84.5032 35.4097 84.2383 35.1436C83.9734 34.8773 83.5648 34.2564 83.333 33.7686C83.1012 33.2806 82.7596 32.3599 82.583 31.7168C82.4064 31.0735 82.0968 29.7318 81.9092 28.7227C81.7106 27.7138 81.5126 26.6272 81.4463 26.3164C81.3801 25.9172 81.291 25.7285 81.1807 25.7285C81.1144 25.7288 80.9924 25.8345 80.8799 25.9854L80.3086 27.1367C80.2203 27.3142 79.9227 28.0688 79.6357 28.834C79.3488 29.5992 78.995 30.7416 78.8516 31.3848C78.6971 32.0278 78.4769 32.9476 78.3555 33.4355C78.223 33.9235 78.0238 34.5226 77.9023 34.7666C77.7809 35.0106 77.5719 35.3328 77.4395 35.4658C77.318 35.61 76.9867 35.8422 76.7109 35.9863C76.435 36.1305 75.916 36.275 75.5518 36.3193C75.1324 36.3748 74.6685 36.3524 74.2822 36.2637C73.9511 36.186 73.4873 36.0308 73.2666 35.9199C73.0349 35.7979 72.7369 35.5432 72.6045 35.3438C72.4279 35.0887 72.3395 34.7888 72.3174 34.2676C72.2843 33.813 72.3398 33.3694 72.4502 33.0479C72.5495 32.7373 72.5828 32.504 72.5166 32.4375C72.4501 32.3714 72.1298 32.6048 71.6113 33.1035C71.1698 33.536 70.4852 34.1235 70.0879 34.4229C69.6905 34.7112 68.9954 35.1441 68.543 35.377C68.0905 35.5987 67.4065 35.8981 67.0312 36.0312C66.6449 36.1532 65.9489 36.2968 65.4854 36.3301C64.8894 36.3744 64.3707 36.3417 63.7969 36.2197C63.3444 36.1199 62.6935 35.9085 62.3623 35.7422C62.0312 35.5758 61.4345 35.1102 61.0371 34.7109C60.6068 34.2785 60.1653 33.6905 59.9336 33.2471C59.7239 32.8258 59.5139 32.4932 59.4697 32.4932C59.4141 32.4942 59.2377 32.7046 59.0615 32.959C58.8959 33.2251 58.3006 33.8577 57.7598 34.3789C57.0424 35.0664 56.5121 35.4541 55.8389 35.7979C55.1435 36.1527 54.7351 36.2863 54.1943 36.3418C53.6978 36.3861 53.2894 36.3524 52.8701 36.2305C52.539 36.1307 52.0197 35.8871 51.7217 35.6875C51.4127 35.4879 51.027 35.0995 50.8613 34.8223C50.6847 34.545 50.4966 34.1343 50.4414 33.9014C50.3753 33.6799 50.2981 33.4915 50.2539 33.4912C50.1987 33.4912 49.7904 33.8241 49.3379 34.2344C48.8854 34.6336 48.1893 35.1766 47.792 35.4316C47.3948 35.6866 46.8767 35.9757 46.6338 36.0645C46.391 36.1643 45.9713 36.275 45.6953 36.3193C45.4195 36.3637 44.9229 36.3419 44.5918 36.2754C44.2607 36.2089 43.7858 36.0202 43.543 35.8428C43.2339 35.6321 43.0245 35.3433 42.8369 34.9219C42.6935 34.5782 42.5501 33.9797 42.5059 33.5029C42.4728 33.06 42.4065 32.6717 42.3623 32.6484C42.3071 32.6263 41.8874 32.9923 41.4238 33.458C40.9493 33.9237 40.1879 34.5891 39.7354 34.9219C39.2828 35.2657 38.5316 35.7209 38.0791 35.9316C37.3289 36.2752 37.1631 36.3197 36.3135 36.3086C35.552 36.2975 35.2541 36.2413 34.7686 36.0195C34.4374 35.8643 33.973 35.5434 33.7412 35.3105C33.5095 35.0666 33.2011 34.6227 33.0576 34.3232C32.9031 34.0127 32.7371 33.5023 32.6709 33.1807C32.5937 32.7926 32.5937 32.3269 32.6709 31.7393C32.7371 31.2735 32.9138 30.4301 33.0684 29.8867C33.2229 29.3432 33.5541 28.3452 33.7969 27.6689C34.0508 26.9922 34.8341 24.8743 35.5625 22.9561C36.2799 21.0375 37.0197 19.0631 37.1963 18.5752C37.3949 18.0542 37.6709 17.5334 37.8916 17.3115C38.0792 17.112 38.3659 16.8785 38.5205 16.8008C38.675 16.7232 39.018 16.6011 39.2939 16.5234C39.5702 16.4459 40.2539 16.3913 40.8164 16.4023C41.3793 16.4134 41.9976 16.48 42.1963 16.5576C42.3839 16.6464 42.6602 16.8568 42.8037 17.0342C42.9728 17.2484 43.0532 17.5034 43.0459 17.7988C43.0459 18.0427 42.9583 18.5199 42.8369 18.8525C42.7265 19.1852 41.7435 21.6805 40.6729 24.3975C39.2714 27.9345 38.6977 29.5095 38.6533 29.9424C38.6313 30.2749 38.6317 30.685 38.6758 30.8516C38.7089 31.029 38.8742 31.2286 39.0508 31.3174C39.2715 31.4394 39.4485 31.4618 39.7686 31.373C40.0224 31.3063 40.4194 31.04 40.8496 30.6299C41.2248 30.2862 41.7105 29.699 41.9424 29.333C42.1631 28.967 42.5162 28.3455 42.7148 27.9463C42.9135 27.5471 43.3995 26.4494 43.7969 25.5068C44.1831 24.5644 44.7678 23.1117 45.0879 22.291C45.408 21.4704 45.8828 20.1949 46.1367 19.4629C46.3905 18.7312 46.7328 17.8885 46.8984 17.5889C47.097 17.223 47.3397 16.9564 47.6816 16.7568C48.1452 16.4907 48.267 16.4688 49.5801 16.4688C50.8159 16.4688 51.0152 16.4907 51.291 16.7012C51.4565 16.8231 51.6884 17.1113 51.7988 17.333C51.9644 17.6879 51.9646 17.8326 51.8652 18.376C51.799 18.731 51.3247 20.0949 50.8281 21.4033C50.3204 22.7119 49.5476 24.7087 49.084 25.8398C48.6316 26.9707 48.1018 28.3229 47.9141 28.8555C47.7265 29.4097 47.5714 30.064 47.5713 30.3525C47.5603 30.6963 47.6384 30.9739 47.7598 31.1514C47.9142 31.3619 48.0574 31.4066 48.3994 31.3955C48.6533 31.3955 49.0068 31.2731 49.2275 31.1289C49.4373 30.9846 49.846 30.5972 50.1328 30.2646C50.4087 29.9321 50.8493 29.2886 51.1143 28.834C51.3681 28.3793 51.7551 27.6022 51.9648 27.1143C52.1637 26.6258 52.7483 25.151 53.2559 23.8428C53.7525 22.5343 54.4704 20.5831 54.8457 19.5186C55.4196 17.8885 55.5852 17.5224 55.9053 17.2119C56.115 17.0234 56.4791 16.8126 56.7109 16.7461C56.9317 16.6907 57.4396 16.6348 57.8369 16.6348C58.234 16.6348 58.7522 16.6904 58.9951 16.7568C59.2379 16.8345 59.6031 17.0562 59.8018 17.2559C60.1215 17.5883 60.1543 17.6995 60.1543 18.2646C60.1543 18.8302 59.9443 19.4403 58.377 23.3994C57.3948 25.872 56.4571 28.3225 56.2803 28.8555C56.1037 29.3989 55.96 30.0314 55.96 30.2754C55.96 30.597 56.0377 30.7965 56.2363 30.9961C56.3909 31.1513 56.7664 31.2181 56.9209 31.207C57.0644 31.1959 57.2738 31.1619 57.5605 31.0068C57.9137 30.8183 58.2674 30.5307 58.5654 30.1426C58.8193 29.821 59.1717 29.2546 59.3594 28.8887C59.536 28.5225 59.9558 27.4473 60.2979 26.5049C60.629 25.5623 61.1143 24.2867 61.3682 23.6768C61.6219 23.067 62.0306 22.2136 62.2734 21.792C62.5272 21.3707 62.9797 20.6607 63.2998 20.2393C63.6199 19.8179 64.1938 19.1518 64.5801 18.7637C64.9664 18.3755 65.6401 17.8215 66.0596 17.5332C66.49 17.2449 67.2076 16.8565 67.6602 16.668C68.1127 16.4795 68.8414 16.2573 69.2607 16.1797C69.6913 16.1132 70.5082 16.0693 71.082 16.1025C71.9203 16.1469 72.2626 16.2133 72.792 16.457C73.1562 16.6234 73.6207 16.9117 73.8193 17.1113C74.029 17.311 74.3152 17.711 74.4697 18.0215C74.6242 18.3209 74.8013 18.8529 74.8564 19.1855C74.9337 19.6402 74.9114 19.995 74.79 20.627C74.6907 21.0815 74.4705 21.758 74.2939 22.124C74.1173 22.49 73.7192 23.0557 73.4102 23.3662C73.1011 23.6878 72.5824 24.0762 72.2734 24.2314C71.9533 24.3867 71.4457 24.5419 71.1367 24.5752C70.8388 24.6084 70.4197 24.597 70.21 24.5527C70.0113 24.4973 69.7899 24.3758 69.7236 24.2871C69.6464 24.1651 69.7567 23.8097 70.165 22.9004C70.4741 22.2239 70.8056 21.4254 70.916 21.126C71.0484 20.7491 71.0929 20.4386 71.0488 20.1504C70.9826 19.8066 70.9047 19.7067 70.5625 19.5625C70.1765 19.4074 70.1099 19.4076 69.6465 19.585C69.3705 19.6959 68.9177 19.9733 68.6309 20.2061C68.3328 20.4392 67.814 21.0159 67.4609 21.4814C67.1188 21.9583 66.6004 22.8005 66.3135 23.3438C66.0375 23.8872 65.6838 24.7415 65.5293 25.2295C65.3748 25.7175 65.1983 26.516 65.1211 27.0039C65.0438 27.514 65.0223 28.1796 65.0664 28.5566C65.1106 28.9226 65.2647 29.4884 65.4082 29.7988C65.5847 30.1978 65.8276 30.497 66.1475 30.7188C66.4013 30.9073 66.8876 31.1069 67.2188 31.1846C67.6601 31.2732 68.0133 31.2733 68.543 31.1846C68.9403 31.118 69.5586 30.9079 69.9229 30.7305C70.2871 30.5419 70.9158 30.0977 71.3242 29.7539C71.7326 29.399 72.3512 28.7889 72.6934 28.3896C73.0356 27.9903 73.6647 27.1479 74.084 26.5049C74.5144 25.8617 75.3425 24.342 75.9385 23.1221C76.5345 21.9021 77.5826 19.5065 78.2559 17.7988C78.9402 16.091 80.0334 13.3963 80.6846 11.8105C81.3357 10.2248 81.909 8.74976 81.9531 8.53906C81.9973 8.32835 82.0312 7.97339 82.0312 7.7627C82.0201 7.51874 81.8539 7.11986 81.5781 6.6543C81.1697 5.99999 81.137 5.8998 81.2363 5.54492C81.2915 5.33421 81.5015 4.98999 81.7002 4.7793C81.8991 4.57964 82.3842 4.23628 82.7812 4.01465C83.1786 3.79286 83.7969 3.52693 84.1611 3.41602C84.5253 3.30514 85.1211 3.17168 85.4854 3.11621C85.8496 3.06076 86.5015 3.039 86.9209 3.07227ZM13.5762 29.5322C13.1678 29.5101 12.6934 29.5549 12.4727 29.6436C12.2631 29.7211 11.954 29.8647 11.7773 29.9756C11.6118 30.0754 11.3462 30.3969 11.1807 30.6963C10.9268 31.1288 10.8828 31.3511 10.8828 32.0498C10.8828 32.7151 10.9385 33.0033 11.1592 33.4912C11.3137 33.8238 11.589 34.2678 11.7656 34.4785C11.9422 34.6781 12.2845 34.9551 12.5273 35.0771C12.8143 35.2213 13.2671 35.3212 13.7969 35.3545C14.4702 35.3878 14.7463 35.3543 15.2871 35.1436C15.6513 34.9994 16.1257 34.711 16.3574 34.4893C16.6222 34.2306 16.7848 33.9538 16.8438 33.6582C16.8879 33.392 16.8653 33.0143 16.7881 32.7148C16.7218 32.4376 16.5341 31.9716 16.3906 31.6611C16.2471 31.3618 15.9603 30.8856 15.7617 30.6084C15.53 30.298 15.177 30.0091 14.835 29.8428C14.4818 29.6653 14.0508 29.5655 13.5762 29.5322ZM26.1592 6.77637C25.7618 6.77637 25.1877 6.86469 24.8896 6.97559C24.5806 7.0865 23.9623 7.40763 23.5098 7.70703C23.0572 7.99537 22.3286 8.52794 21.9092 8.88281C21.4898 9.22657 20.7398 9.93623 20.2432 10.4463C19.7576 10.9453 19.0841 11.6886 18.7529 12.0879C18.4108 12.4871 17.8369 13.2083 17.4727 13.6963C17.1084 14.1843 16.4901 15.0601 16.0928 15.6367C15.6955 16.2133 15.0111 17.311 14.5586 18.0762C14.1171 18.8414 13.4221 20.1617 13.0137 21.0156C12.6054 21.8693 12.0645 23.144 11.8105 23.8428C11.5567 24.5414 11.2581 25.5179 11.1367 26.0059C11.0264 26.4938 10.9268 27.0816 10.9268 27.3145C10.9268 27.5362 10.9607 27.7246 11.0049 27.7246C11.0604 27.724 11.215 27.6025 11.3691 27.4365C11.5237 27.2813 11.9426 26.9265 12.3066 26.6494C12.6708 26.3722 13.245 26.0062 13.5762 25.8398C13.9073 25.6735 14.4815 25.4406 14.8457 25.3408C15.2099 25.2299 15.8609 25.1406 16.2803 25.1406C16.6997 25.1406 17.329 25.2075 17.6602 25.2852C17.9913 25.3628 18.5655 25.584 18.9297 25.7725C19.2939 25.961 19.9005 26.4163 20.2979 26.7822C20.6842 27.1482 21.192 27.7359 21.4238 28.0908C21.6662 28.434 21.8867 28.7217 21.9424 28.7227C21.9865 28.7227 22.3288 28.257 22.7041 27.6914C23.0793 27.137 23.7414 26.0727 24.1719 25.3408C24.6023 24.609 25.2425 23.4331 25.5957 22.7344C25.9599 22.0358 26.4786 20.9158 26.7656 20.2393C27.0526 19.5628 27.4397 18.5425 27.6494 17.9658C27.8481 17.3891 28.1345 16.4351 28.2891 15.8584C28.4436 15.2817 28.6643 14.3276 28.7637 13.751C28.885 13.0967 28.9629 12.0988 28.9629 11.0898C28.9739 9.77017 28.9295 9.35981 28.7529 8.81641C28.6316 8.45056 28.3888 7.95174 28.2012 7.71875C28.0246 7.47477 27.649 7.1637 27.373 7.01953C26.9869 6.82002 26.7108 6.76529 26.1592 6.77637ZM59.6582 8.10645C60.0223 8.10649 60.4964 8.16266 60.7061 8.24023C60.9158 8.31786 61.2476 8.49513 61.4463 8.65039C61.6449 8.80578 61.9315 9.18228 62.0859 9.48145C62.2625 9.82515 62.3953 10.3022 62.4395 10.7568C62.4836 11.2558 62.4505 11.6665 62.3291 12.0879C62.2298 12.4206 61.9979 12.9086 61.8213 13.1748C61.6337 13.4299 61.2695 13.7962 61.0156 13.9736C60.7507 14.1621 60.2758 14.4164 59.9668 14.5273C59.6467 14.6493 59.1167 14.7718 58.8076 14.7939C58.4875 14.8161 57.991 14.7827 57.7041 14.7051C57.3841 14.6274 56.9645 14.4392 56.7217 14.1953C56.5009 13.9735 56.2364 13.5738 56.126 13.3076C56.0046 12.9638 55.9164 12.4869 55.9385 11.8105C55.9606 10.9789 56.1143 10.4905 56.3682 10.0137C56.5447 9.69227 56.7877 9.4707 56.9863 9.24902C57.174 9.02723 57.5168 8.73918 57.7266 8.61719C57.9362 8.48418 58.3109 8.31757 58.5537 8.25098C58.7965 8.17335 59.294 8.10645 59.6582 8.10645Z" fill="white"/>
</svg>
