<svg xmlns="http://www.w3.org/2000/svg" viewBox="0 0 124 124">
  <path d="M26.3996 78.3998C26.3996 84.6998 21.2996 89.7998 14.9996 89.7998C8.69961 89.7998 3.59961 84.6998 3.59961 78.3998C3.59961 72.0998 8.69961 66.9998 14.9996 66.9998H26.3996V78.3998Z" fill="#E01E5A"/>
  <path d="M32.0996 78.3998C32.0996 72.0998 37.1996 66.9998 43.4996 66.9998C49.7996 66.9998 54.8996 72.0998 54.8996 78.3998V109C54.8996 115.3 49.7996 120.4 43.4996 120.4C37.1996 120.4 32.0996 115.3 32.0996 109V78.3998Z" fill="#E01E5A"/>
  <path d="M43.4996 26.3998C37.1996 26.3998 32.0996 21.2998 32.0996 14.9998C32.0996 8.69982 37.1996 3.59982 43.4996 3.59982C49.7996 3.59982 54.8996 8.69982 54.8996 14.9998V26.3998H43.4996Z" fill="#36C5F0"/>
  <path d="M43.5 32.0998C49.8 32.0998 54.9 37.1998 54.9 43.4998C54.9 49.7998 49.8 54.8998 43.5 54.8998H13C6.7 54.8998 1.6 49.7998 1.6 43.4998C1.6 37.1998 6.7 32.0998 13 32.0998H43.5Z" fill="#36C5F0"/>
  <path d="M97.5996 43.4998C97.5996 37.1998 102.7 32.0998 108.1 32.0998C115.3 32.0998 120.4 37.1998 120.4 43.4998C120.4 49.7998 115.3 54.8998 109 54.8998H97.5996V43.4998Z" fill="#2EB67D"/>
  <path d="M91.8996 43.5C91.8996 49.8 86.7996 54.9 80.4996 54.9C74.1996 54.9 69.0996 49.8 69.0996 43.5V13C69.0996 6.7 74.1996 1.6 80.4996 1.6C86.7996 1.6 91.8996 6.7 91.8996 13V43.5Z" fill="#2EB67D"/>
  <path d="M80.4996 97.5998C86.7996 97.5998 91.8996 102.7 91.8996 108.1C91.8996 115.3 86.7996 120.4 80.4996 120.4C74.1996 120.4 69.0996 115.3 69.0996 109V97.5998H80.4996Z" fill="#ECB22E"/>
  <path d="M80.5 91.8998C74.2 91.8998 69.1 86.7998 69.1 80.4998C69.1 74.1998 74.2 69.0998 80.5 69.0998H111C117.3 69.0998 122.4 74.1998 122.4 80.4998C122.4 86.7998 117.3 91.8998 111 91.8998H80.5Z" fill="#ECB22E"/>
</svg>

